<?xml version="1.0" encoding="utf-8"?>
<!-- Generator: Adobe Illustrator 27.1.0, SVG Export Plug-In . SVG Version: 6.00 Build 0)  -->
<svg version="1.1" id="Capa_1" xmlns="http://www.w3.org/2000/svg" xmlns:xlink="http://www.w3.org/1999/xlink" x="0px" y="0px"
	 viewBox="0 0 16 16" style="enable-background:new 0 0 16 16;" xml:space="preserve">
<style type="text/css">
	.st0{fill:#0013FF;}
</style>
<path class="st0" d="M0,1.1C0,0.5,0.5,0,1.2,0h13.6C15.5,0,16,0.5,16,1.1v13.7c0,0.6-0.5,1.1-1.2,1.1H1.2C0.5,16,0,15.5,0,14.9V1.1z
	 M4.9,13.4V6.2H2.5v7.2H4.9z M3.7,5.2c0.8,0,1.4-0.6,1.4-1.2c0-0.7-0.5-1.2-1.3-1.2S2.4,3.2,2.4,3.9C2.4,4.6,2.9,5.2,3.7,5.2
	L3.7,5.2z M8.7,13.4v-4c0-0.2,0-0.4,0.1-0.6C8.9,8.3,9.3,7.9,10,7.9c0.9,0,1.2,0.7,1.2,1.6v3.9h2.4V9.2C13.6,7,12.4,6,10.8,6
	C9.5,6,9,6.7,8.7,7.2v0h0c0,0,0,0,0,0v-1H6.3c0,0.7,0,7.2,0,7.2H8.7z"/>
</svg>
