<?xml version="1.0" encoding="utf-8"?>
<!-- Generator: Adobe Illustrator 27.1.0, SVG Export Plug-In . SVG Version: 6.00 Build 0)  -->
<svg version="1.1" id="Capa_1" xmlns="http://www.w3.org/2000/svg" xmlns:xlink="http://www.w3.org/1999/xlink" x="0px" y="0px"
	 viewBox="0 0 16 16" style="enable-background:new 0 0 16 16;" xml:space="preserve">
<style type="text/css">
	.st0{fill:#00FF00;}
</style>
<g id="XMLID_00000065764622666389997470000011550800564247356839_">
	<g>
		<path class="st0" d="M13.6,2.3c1.5,1.5,2.3,3.5,2.3,5.6c0,4.4-3.6,7.9-7.9,7.9h0c-1.3,0-2.6-0.3-3.8-1L0,16l1.1-4.1
			c-0.7-1.2-1.1-2.6-1.1-4C0.1,3.6,3.6,0,8,0C10.1,0,12.1,0.8,13.6,2.3z M14.6,7.9c0-1.8-0.7-3.4-1.9-4.7C11.4,2,9.8,1.3,8,1.3
			c-3.6,0-6.6,3-6.6,6.6c0,1.2,0.3,2.5,1,3.5l0.2,0.2l-0.7,2.4l2.5-0.6l0.2,0.1c1,0.6,2.2,0.9,3.3,0.9C11.6,14.5,14.6,11.6,14.6,7.9
			z"/>
		<path class="st0" d="M12,9.8c0.1,0.1,0.1,0.5-0.1,0.9c-0.2,0.5-1,0.9-1.3,0.9c-0.3,0-0.8,0.1-1.2-0.1c-0.3-0.1-0.7-0.2-1.1-0.4
			c-2-0.9-3.3-2.9-3.4-3C4.7,8.1,4,7.1,4,6.2c0-1,0.5-1.5,0.7-1.7C4.8,4.4,5,4.3,5.2,4.3h0.4c0.1,0,0.3-0.1,0.4,0.3
			C6.2,5,6.6,6,6.6,6.1c0,0.1,0.1,0.2,0,0.3C6.6,6.6,6.5,6.7,6.4,6.8C6.3,6.9,6.2,7,6.2,7.1C6.1,7.2,5.9,7.3,6.1,7.5
			c0.1,0.2,0.5,0.8,1.1,1.4c0.8,0.7,1.4,0.9,1.6,1c0.2,0.1,0.3,0.1,0.4,0C9.3,9.7,9.7,9.2,9.8,9c0.1-0.2,0.3-0.2,0.4-0.1
			c0.2,0.1,1.1,0.6,1.3,0.7C11.8,9.7,11.9,9.7,12,9.8z"/>
	</g>
	<g>
	</g>
</g>
</svg>
